PathFileType	4	(X/Y/Z)	c:/Users/goper/Files/vsCode/490R/osim_files/A01/A01_Slow_04.trc
DataRate	CameraRate	NumFrames	NumMarkers	Units                	OrigDataRate	OrigDataStartFrame	OrigNumFrames
120.00	120.00	10	36	mm	120.0	623	1661
                Frame#	Time	Mobility_markerset:LPSIS			Mobility_markerset:LASIS			Mobility_markerset:LTH1			Mobility_markerset:LTH2			Mobility_markerset:LTH3			Mobility_markerset:LTH4			Mobility_markerset:LLFE			Mobility_markerset:LMFE			Mobility_markerset:LSH1			Mobility_markerset:LSH2			Mobility_markerset:LSH3			Mobility_markerset:LSH4			Mobility_markerset:LLMAL			Mobility_markerset:LMMAL			Mobility_markerset:LCAL			Mobility_markerset:LMTP5			Mobility_markerset:LTOE			Mobility_markerset:LMTP1			Mobility_markerset:RPSIS			Mobility_markerset:RASIS			Mobility_markerset:RTH1			Mobility_markerset:RTH2			Mobility_markerset:RTH3			Mobility_markerset:RTH4			Mobility_markerset:RLFE			Mobility_markerset:RMFE			Mobility_markerset:RSH1			Mobility_markerset:RSH2			Mobility_markerset:RSH3			Mobility_markerset:RSH4			Mobility_markerset:RLMAL			Mobility_markerset:RMMAL			Mobility_markerset:RCAL			Mobility_markerset:RMTP1			Mobility_markerset:RTOE			Mobility_markerset:RMTP5		
		X1	Y1	Z1	X2	Y2	Z2	X3	Y3	Z3	X4	Y4	Z4	X5	Y5	Z5	X6	Y6	Z6	X7	Y7	Z7	X8	Y8	Z8	X9	Y9	Z9	X10	Y10	Z10	X11	Y11	Z11	X12	Y12	Z12	X13	Y13	Z13	X14	Y14	Z14	X15	Y15	Z15	X16	Y16	Z16	X17	Y17	Z17	X18	Y18	Z18	X19	Y19	Z19	X20	Y20	Z20	X21	Y21	Z21	X22	Y22	Z22	X23	Y23	Z23	X24	Y24	Z24	X25	Y25	Z25	X26	Y26	Z26	X27	Y27	Z27	X28	Y28	Z28	X29	Y29	Z29	X30	Y30	Z30	X31	Y31	Z31	X32	Y32	Z32	X33	Y33	Z33	X34	Y34	Z34	X35	Y35	Z35	X36	Y36	Z36

623	5.18333	581.91541	1033.15234	319.02704	339.72153	1010.33081	388.87479	317.96933	697.18500	453.84845	291.88416	658.45203	443.36227	267.89056	727.06018	444.44406	250.06462	686.23712	432.53091	0.00000	0.00000	0.00000	0.00000	0.00000	0.00000	193.11264	390.26428	390.94608	176.89474	346.21701	394.20682	133.29721	406.54642	389.68253	126.71323	360.76810	390.58246	74.37476	114.11400	377.64575	82.52394	109.07323	292.47797	139.37437	57.94888	335.57275	-72.91830	115.49452	396.91937	-89.46400	146.58029	329.03702	-70.47415	123.24294	295.95001	585.52509	1037.94519	217.58487	359.07336	985.04016	127.98824	536.48218	672.13220	79.55724	531.53766	629.25836	88.36375	472.03400	670.84351	81.52652	478.98950	629.25934	87.60435	508.88846	486.06842	135.39861	499.52753	503.43542	255.21545	647.34564	314.88800	138.09564	655.57629	271.02835	141.25465	588.69354	297.50256	135.27869	603.78467	254.92821	139.35968	676.91833	93.89456	182.09245	648.55664	109.92866	265.68079	732.38367	70.69674	233.46165	528.22217	39.56970	263.90482	493.66653	50.16919	216.72932	551.17242	31.09855	150.84102
624	5.19167	571.70990	1031.80640	320.37927	328.84702	1008.57642	388.65482	308.21506	694.55804	453.17365	282.44894	655.74902	442.45239	258.15622	724.55035	443.27200	240.46068	683.48059	430.99030	0.00000	0.00000	0.00000	0.00000	0.00000	0.00000	179.58980	388.28983	390.20325	162.72061	345.21106	394.07925	120.66296	406.72623	388.53293	112.86909	360.98309	389.94293	54.63198	115.51774	378.50354	63.28257	109.62856	293.48746	117.93407	57.18249	337.46393	-92.72373	120.79577	396.67068	-108.06813	151.91093	328.41577	-89.49368	127.99490	296.02087	575.69702	1036.65881	219.00417	349.86407	983.60858	128.19719	529.56500	671.71906	80.10301	525.34363	629.02899	88.96570	464.97171	669.85986	81.97247	472.32013	628.32196	88.02787	503.71918	485.35391	135.65233	493.98318	503.06876	255.66525	643.87781	315.60870	138.57928	652.76508	271.87170	141.57559	584.52954	296.21671	137.01193	601.26294	255.16576	139.62511	676.35541	94.88297	182.13385	647.62878	110.65800	265.74258	732.08270	71.66679	233.58479	528.15631	39.54419	263.87473	493.45499	49.94015	216.64798	551.19177	31.12351	150.85484
625	5.20000	561.25928	1030.30542	321.75870	318.35245	1006.80524	388.63617	298.19708	692.14581	452.45792	272.64694	653.27966	441.28201	248.18021	722.05298	441.88107	230.80334	680.83545	429.32101	0.00000	0.00000	0.00000	0.00000	0.00000	0.00000	167.57358	387.12231	389.68356	149.32570	343.99240	393.82822	108.78506	406.37881	387.60352	100.01639	360.76297	389.25110	37.31020	116.36695	379.28522	46.42929	109.79916	294.42245	99.65743	56.45377	338.97769	-109.90154	124.80647	396.60532	-124.59081	155.96945	328.00885	-105.78384	131.47359	296.28717	565.77240	1035.32422	220.44008	340.55801	982.09070	128.29951	522.45575	671.22803	80.77531	518.18842	628.22638	89.47369	459.24139	669.21643	81.80489	465.54141	627.23053	88.33069	498.16647	484.43976	135.97832	487.69501	502.01627	256.10275	640.35162	316.35321	138.96805	649.78168	272.70682	141.93083	582.34259	297.57031	135.86426	598.51044	255.37872	139.88327	675.63373	95.84082	182.20091	646.73651	111.31295	265.93210	731.75000	72.79166	233.68124	528.04541	39.46003	263.82285	493.24173	49.66868	216.59288	551.13007	31.13075	150.90826
626	5.20833	550.51337	1028.74561	323.14694	307.28247	1005.09338	388.54764	288.11642	689.91284	451.45007	262.81503	651.12201	439.95694	238.01089	719.75024	440.56137	221.05695	678.67566	427.55005	0.00000	0.00000	0.00000	0.00000	0.00000	0.00000	156.24783	385.93655	389.25131	137.30872	342.85049	393.49719	97.56072	405.69308	386.68466	88.57581	360.43250	388.77780	22.86044	116.64011	379.79752	32.48390	109.36968	295.16974	84.61584	55.58250	340.24026	-124.31059	127.16414	396.43994	-138.44327	158.21600	327.56158	-120.00935	133.03471	295.65900	555.83087	1033.99524	221.87148	331.11044	980.42633	128.61760	515.24780	670.58826	81.40723	511.37115	627.58160	90.04285	451.28577	667.76575	82.39761	458.77844	626.14319	88.78820	492.20187	483.39514	136.42557	481.05676	500.81854	256.27960	636.59589	317.03320	139.37546	646.70404	273.57883	142.26451	578.90350	297.49103	136.30318	595.63007	255.56230	140.22061	674.88165	96.99333	182.18462	645.56531	112.45343	266.26703	731.40582	74.24455	233.68321	527.99969	39.42984	263.76208	493.11322	49.41661	216.52380	551.12695	31.16405	150.94046
627	5.21667	540.42096	1027.39978	324.55469	296.45023	1003.50067	388.46982	277.91476	687.99274	450.46222	252.62198	649.19708	438.52676	227.94270	717.85669	439.36328	210.91484	676.78528	426.08115	0.00000	0.00000	0.00000	0.00000	0.00000	0.00000	145.68816	384.71548	388.96683	126.74393	341.95541	393.40677	86.99123	404.65875	385.87869	77.75659	359.43234	388.05441	11.13897	115.84156	380.07944	21.05080	108.08565	295.59039	72.64465	54.40070	341.25327	-136.12038	127.02267	395.52609	-149.89738	158.08908	326.52737	-130.99599	132.55188	294.76874	545.76837	1032.60242	223.28545	321.53799	978.67755	128.95230	508.33603	669.95312	82.24207	504.41992	626.78229	90.71182	444.55621	666.75922	82.84944	451.79239	625.06464	89.22462	486.02908	482.33398	136.84605	473.95279	499.31485	256.50079	632.68213	317.81454	139.77789	643.40436	274.43768	142.59848	574.21143	296.30280	137.88930	592.56824	255.81677	140.52478	674.12933	98.21046	182.20494	644.85614	112.99408	266.19159	730.84796	75.91250	233.70891	527.92816	39.41382	263.73041	492.94589	49.14252	216.46718	551.11456	31.17248	151.01718
628	5.22500	529.50049	1025.74609	325.96222	285.80734	1001.87805	388.71555	267.57178	686.32129	449.40997	242.30931	647.62598	437.16339	217.55086	716.19800	438.45996	200.58255	675.21729	424.79346	0.00000	0.00000	0.00000	0.00000	0.00000	0.00000	135.52573	383.28259	388.82425	116.60892	340.34915	393.31216	77.04285	403.15610	385.18143	68.06880	358.08978	387.57358	2.21255	113.97763	380.02539	12.84652	105.87891	295.67041	64.53062	52.69785	342.10959	-145.32733	124.65530	394.03021	-158.55022	155.16927	324.82269	-139.25923	129.67000	293.33569	535.68213	1031.16687	224.79793	311.85208	976.76074	129.19727	500.44165	668.94928	82.95844	497.14401	625.87952	91.42059	437.39624	665.47723	83.15090	444.63589	623.78137	89.69865	479.50516	481.16913	137.15140	466.86581	497.71432	256.84186	628.46680	318.64124	140.17656	639.46674	275.82623	142.75365	570.37231	296.19928	138.36180	589.35736	256.06992	140.87793	673.21460	99.53562	182.15349	643.88953	113.86897	266.20541	730.33429	77.77350	233.67830	527.81201	39.37555	263.70172	492.74289	48.86472	216.46774	551.07599	31.22280	151.07919
629	5.23333	519.36560	1024.31714	327.42493	275.06186	1000.26495	389.01816	257.05688	684.94910	448.60141	231.84451	646.23602	436.28897	206.28116	715.00671	437.95398	189.98019	673.89038	424.05884	0.00000	0.00000	0.00000	0.00000	0.00000	0.00000	126.30072	381.52417	388.78830	107.97394	338.72610	393.30249	67.64261	400.93448	384.52808	59.18468	355.74176	387.15799	-4.25781	111.08387	379.58029	7.31310	102.74163	295.34155	59.18969	50.32619	342.55557	-152.04361	120.40393	392.11865	-164.72578	150.36134	322.58688	-144.90013	124.61756	290.85226	525.39374	1029.59668	226.22665	302.17334	974.80585	129.57286	492.83755	668.05261	83.79797	489.77737	624.89508	92.18907	429.84103	664.23700	83.64445	437.27396	622.55865	90.22689	472.99057	479.89825	137.77672	459.42706	496.02731	257.08667	624.28320	319.61765	140.37529	635.80908	276.88345	143.06328	567.36835	297.53329	137.38179	585.83783	256.34302	141.20808	672.27155	101.03075	182.17879	642.89288	114.95090	266.19803	729.71002	79.81701	233.74716	527.69635	39.34602	263.68243	492.48431	48.55650	216.44527	551.04242	31.29531	151.17674
630	5.24167	508.67084	1022.78064	328.80289	264.20538	998.62537	389.59122	246.12997	683.90350	448.18256	221.17497	645.06110	435.92130	195.68700	713.70679	437.48227	179.26015	672.46802	423.67017	0.00000	0.00000	0.00000	136.94148	552.81567	256.61072	117.78217	379.36627	388.73056	100.58691	336.73889	393.30368	59.10500	398.16202	383.97305	51.08436	352.60132	386.45035	-8.52999	107.81032	379.05759	4.34522	99.72212	295.19238	56.59450	49.98891	343.05890	-156.62839	113.96890	389.74472	-168.63512	143.72369	320.18546	-148.19092	118.27359	289.08673	515.05157	1028.03516	227.65530	291.50104	973.11987	130.10928	485.02216	667.07861	84.70320	482.15109	623.94720	93.02500	421.85187	662.75079	84.16692	429.69876	621.34998	90.77953	466.08411	478.75827	138.35216	451.71164	494.76804	256.98581	619.49524	320.50601	140.81038	631.87463	277.95743	143.33492	562.67163	297.34869	138.30753	582.19623	256.76895	141.55994	671.08264	102.57007	182.06113	641.46069	115.99177	266.16809	729.26221	82.46022	233.81104	527.53052	39.35321	263.63580	492.19958	48.26542	216.38835	550.98859	31.35460	151.28864
631	5.25000	497.93494	1021.35266	330.08414	253.26527	996.92413	390.17743	235.26276	682.96918	448.23172	210.29761	643.96576	436.02841	184.55843	712.37939	437.11172	168.45580	671.07672	423.72644	0.00000	0.00000	0.00000	0.00000	0.00000	0.00000	110.16540	377.11261	388.70346	93.33087	333.99738	393.15277	51.30001	395.06781	383.45175	44.16662	349.45038	385.99084	-10.89188	104.31923	378.17953	3.19603	96.59719	295.38174	55.64467	49.32848	343.42963	-159.96877	106.27428	387.17889	-171.92563	134.88553	317.60281	-150.92101	111.10938	286.78369	504.56738	1026.49048	228.96622	281.46884	971.22583	130.42191	476.89478	666.15369	85.61211	474.23825	623.03082	93.89098	413.91061	661.65161	84.84328	421.83099	620.12677	91.35310	459.12024	477.71991	139.09744	443.84375	493.30106	257.38751	614.49042	321.49551	141.17216	627.81067	279.20691	143.67117	557.33911	296.47031	139.74260	578.31830	257.26279	141.93385	670.09650	104.58430	182.09856	640.34100	117.61569	266.44727	728.12830	84.79103	233.62621	527.36957	39.41790	263.57346	491.92288	48.02207	216.32013	550.92804	31.43316	151.38104
632	5.25833	487.04880	1020.01282	331.36569	242.02211	995.36932	391.05844	224.13583	682.01550	448.54538	199.52391	642.81885	436.75592	173.50237	711.37445	437.36780	157.42474	669.80780	424.20111	0.00000	0.00000	0.00000	0.00000	0.00000	0.00000	102.90317	375.31726	388.97186	86.81771	332.09363	393.62778	44.14632	392.60300	383.02072	37.71067	346.96606	385.79483	-13.49301	101.46148	377.89694	1.78788	94.24174	295.82849	54.68278	48.83392	344.11096	-162.74411	100.20888	385.17050	-174.40569	127.91991	315.57321	-152.82385	104.81625	284.83231	493.98584	1024.98669	230.23849	271.04901	969.28650	130.86214	468.53119	665.19568	86.64379	465.88818	621.93896	94.76845	404.97729	660.10724	85.81902	413.68750	618.85480	91.96374	451.12634	476.41187	139.61201	435.76791	491.95038	257.88678	609.45538	322.71457	141.52599	623.35352	280.50388	143.96936	552.73016	296.83252	140.18088	574.20996	257.81732	142.39632	668.35657	106.52081	181.93541	638.83026	119.08047	266.53738	727.03540	87.75909	233.59746	527.13165	39.48087	263.55801	491.62408	47.78053	216.26076	550.85565	31.55048	151.48964
